<svg width="502.775px" height="122px" xmlns="http://www.w3.org/2000/svg" viewBox="-1.3874999999999886 14 502.775 122" style="background: rgba(0, 0, 0, 0);" preserveAspectRatio="xMidYMid"><defs><filter id="editing-metal-beveled"><feGaussianBlur stdDeviation="4" in="SourceAlpha" result="blur"></feGaussianBlur><feSpecularLighting surfaceScale="5" specularConstant="0.8" specularExponent="7.5" lighting-color="#ffffff" in="blur" result="specular"><fePointLight x="-250" y="-50" z="300"></fePointLight></feSpecularLighting><feComposite operator="in" in="specular" in2="SourceAlpha" result="comp"></feComposite><feComposite in="SourceGraphic" in2="comp" operator="arithmetic" k1="0" k2="1" k3="1" k4="0"></feComposite></filter></defs><g filter="url(#editing-metal-beveled)"><g transform="translate(73.07882416248322, 99)"><path d="M26.05-29.57L26.05-29.57L26.05-29.57Q27.01-31.49 27.01-33.28L27.01-33.28L27.01-33.28Q27.01-35.07 26.82-36.06L26.82-36.06L26.82-36.06Q26.62-37.06 26.18-37.82L26.18-37.82L26.18-37.82Q25.22-39.49 23.30-39.49L23.30-39.49L23.30-39.49Q20.93-39.49 19.01-37.76L19.01-37.76L19.01-37.76Q16.96-35.97 16.96-33.15L16.96-33.15L16.96-33.15Q16.96-31.36 18.21-29.98L18.21-29.98L18.21-29.98Q19.46-28.61 21.38-27.33L21.38-27.33L21.38-27.33Q23.30-26.05 25.47-24.77L25.47-24.77L25.47-24.77Q27.65-23.49 29.57-21.95L29.57-21.95L29.57-21.95Q33.98-18.43 33.98-13.70L33.98-13.70L33.98-13.70Q33.98-10.50 32.29-7.78L32.29-7.78L32.29-7.78Q30.59-5.06 27.78-3.07L27.78-3.07L27.78-3.07Q21.63 1.28 13.50 1.28L13.50 1.28L13.50 1.28Q6.91 1.28 3.52-0.86L3.52-0.86L3.52-0.86Q0.13-3.01 0.13-6.27L0.13-6.27L0.13-6.27Q0.13-12.10 4.67-13.57L4.67-13.57L4.67-13.57Q5.95-14.02 7.90-14.02L7.90-14.02L7.90-14.02Q9.86-14.02 12.10-13.18L12.10-13.18L12.10-13.18Q11.07-10.56 11.07-8.19L11.07-8.19L11.07-8.19Q11.07-3.07 14.72-3.07L14.72-3.07L14.72-3.07Q17.09-3.07 19.04-4.80L19.04-4.80L19.04-4.80Q20.99-6.53 20.99-8.48L20.99-8.48L20.99-8.48Q20.99-10.43 19.74-11.84L19.74-11.84L19.74-11.84Q18.50-13.25 16.64-14.37L16.64-14.37L16.64-14.37Q14.78-15.49 12.64-16.58L12.64-16.58L12.64-16.58Q10.50-17.66 8.64-19.20L8.64-19.20L8.64-19.20Q4.29-22.72 4.29-28.35L4.29-28.35L4.29-28.35Q4.29-32 6.08-34.85L6.08-34.85L6.08-34.85Q7.87-37.70 10.75-39.62L10.75-39.62L10.75-39.62Q16.51-43.52 23.58-43.52L23.58-43.52L23.58-43.52Q30.66-43.52 34.08-41.41L34.08-41.41L34.08-41.41Q37.50-39.30 37.50-35.71L37.50-35.71L37.50-35.71Q37.50-32.58 35.07-30.59L35.07-30.59L35.07-30.59Q32.96-28.93 30.40-28.93L30.40-28.93L30.40-28.93Q27.84-28.93 26.05-29.57ZM54.21-3.52L54.21-3.52L54.21-3.52Q52.22 1.28 45.89 1.28L45.89 1.28L45.89 1.28Q42.62 1.28 40.58-0.96L40.58-0.96L40.58-0.96Q38.85-2.94 38.85-4.93L38.85-4.93L38.85-4.93Q38.85-10.11 41.22-20.22L41.22-20.22L43.58-32.64L56.58-33.92L52.67-13.70L52.67-13.70Q51.58-8.96 51.58-7.30L51.58-7.30L51.58-7.30Q51.58-3.65 54.21-3.52ZM44.74-41.54L44.74-41.54L44.74-41.54Q44.74-44.03 46.82-45.38L46.82-45.38L46.82-45.38Q48.90-46.72 51.90-46.72L51.90-46.72L51.90-46.72Q54.91-46.72 56.74-45.38L56.74-45.38L56.74-45.38Q58.56-44.03 58.56-41.54L58.56-41.54L58.56-41.54Q58.56-39.04 56.54-37.76L56.54-37.76L56.54-37.76Q54.53-36.48 51.52-36.48L51.52-36.48L51.52-36.48Q48.51-36.48 46.62-37.76L46.62-37.76L46.62-37.76Q44.74-39.04 44.74-41.54ZM79.81-33.92L79.81-33.92L79.81-33.92Q82.11-33.92 83.90-33.41L83.90-33.41L83.90-33.41Q83.97-33.66 84.10-34.37L84.10-34.37L84.42-36.35L84.42-36.35Q84.67-37.63 85.06-39.74L85.06-39.74L86.08-44.80L98.82-46.08L91.71-8.96L91.71-8.96Q91.65-8.58 91.65-7.94L91.65-7.94L91.65-6.91L91.65-6.91Q91.65-5.50 92.35-4.45L92.35-4.45L92.35-4.45Q93.06-3.39 94.21-3.39L94.21-3.39L94.21-3.39Q92.93-0.38 89.02 0.90L89.02 0.90L89.02 0.90Q87.68 1.28 85.79 1.28L85.79 1.28L85.79 1.28Q83.90 1.28 82.18 0.29L82.18 0.29L82.18 0.29Q80.45-0.70 79.94-2.37L79.94-2.37L79.94-2.37Q78.91-0.70 76.86 0.29L76.86 0.29L76.86 0.29Q74.82 1.28 71.84 1.28L71.84 1.28L71.84 1.28Q68.86 1.28 66.40 0.51L66.40 0.51L66.40 0.51Q63.94-0.26 62.40-1.92L62.40-1.92L62.40-1.92Q59.58-5.18 59.58-12.61L59.58-12.61L59.58-12.61Q59.58-22.21 65.22-28.03L65.22-28.03L65.22-28.03Q70.85-33.92 79.81-33.92ZM79.36-30.08L79.36-30.08L79.36-30.08Q76.99-30.08 75.71-27.52L75.71-27.52L75.71-27.52Q74.43-24.96 73.12-18.62L73.12-18.62L73.12-18.62Q71.81-12.29 71.81-6.59L71.81-6.59L71.81-6.59Q71.81-2.69 74.11-2.69L74.11-2.69L74.11-2.69Q76.16-2.69 77.60-4.74L77.60-4.74L77.60-4.74Q79.04-6.78 79.62-10.18L79.62-10.18L83.07-28.93L83.07-28.93Q81.73-30.08 79.36-30.08ZM137.86-42.69L137.86-42.69L137.86-42.69Q153.54-42.69 153.54-31.62L153.54-31.62L153.54-31.62Q153.54-25.54 149.63-21.89L149.63-21.89L149.63-21.89Q145.79-18.24 139.07-18.24L139.07-18.24L139.07-18.24Q135.94-18.24 133.50-20.03L133.50-20.03L133.50-20.03Q132.35-20.80 131.58-21.82L131.58-21.82L131.58-21.82Q136.26-21.82 138.72-24.67L138.72-24.67L138.72-24.67Q141.18-27.52 141.18-33.09L141.18-33.09L141.18-33.09Q141.18-38.66 135.68-38.66L135.68-38.66L134.14-38.66L134.14-38.66Q133.76-38.66 133.44-38.59L133.44-38.59L126.08 0L112.19 0L120.06-41.92L120.06-41.92Q126.91-42.56 130.88-42.62L130.88-42.62L130.88-42.62Q134.85-42.69 137.86-42.69ZM179.78-10.82L179.78-10.82L179.78-10.82Q181.38-9.73 181.38-7.33L181.38-7.33L181.38-7.33Q181.38-4.93 180.16-3.39L180.16-3.39L180.16-3.39Q178.94-1.86 176.96-0.83L176.96-0.83L176.96-0.83Q172.86 1.28 168.45 1.28L168.45 1.28L168.45 1.28Q164.03 1.28 161.44 0.32L161.44 0.32L161.44 0.32Q158.85-0.64 157.12-2.43L157.12-2.43L157.12-2.43Q153.73-5.82 153.73-12.03L153.73-12.03L153.73-12.03Q153.73-21.70 158.98-27.58L158.98-27.58L158.98-27.58Q164.61-33.92 174.40-33.92L174.40-33.92L174.40-33.92Q180.48-33.92 183.49-31.36L183.49-31.36L183.49-31.36Q185.73-29.44 185.73-26.30L185.73-26.30L185.73-26.30Q185.73-15.04 166.27-15.04L166.27-15.04L166.27-15.04Q166.02-13.38 166.02-11.97L166.02-11.97L166.02-11.97Q166.02-9.02 167.33-7.90L167.33-7.90L167.33-7.90Q168.64-6.78 171.07-6.78L171.07-6.78L171.07-6.78Q173.50-6.78 176.10-7.90L176.10-7.90L176.10-7.90Q178.69-9.02 179.78-10.82ZM166.72-17.79L166.72-17.79L166.72-17.79Q171.26-17.79 173.89-20.61L173.89-20.61L173.89-20.61Q176.51-23.30 176.51-27.58L176.51-27.58L176.51-27.58Q176.51-29.06 175.97-29.86L175.97-29.86L175.97-29.86Q175.42-30.66 174.34-30.66L174.34-30.66L174.34-30.66Q173.25-30.66 172.32-30.24L172.32-30.24L172.32-30.24Q171.39-29.82 170.43-28.42L170.43-28.42L170.43-28.42Q168.06-25.22 166.72-17.79ZM207.94-17.98L207.94-17.98L207.94-17.98Q210.24-22.08 210.24-26.24L210.24-26.24L210.24-26.24Q210.24-28.99 208.26-28.99L208.26-28.99L208.26-28.99Q206.72-28.99 205.12-26.37L205.12-26.37L205.12-26.37Q203.46-23.74 202.94-20.35L202.94-20.35L199.62 0L186.37 1.28L192.90-32.64L203.46-33.92L202.30-27.46L202.30-27.46Q205.44-33.92 212.48-33.92L212.48-33.92L212.48-33.92Q216.19-33.92 218.21-32L218.21-32L218.21-32Q220.22-30.08 220.22-26.14L220.22-26.14L220.22-26.14Q220.22-22.21 217.63-19.71L217.63-19.71L217.63-19.71Q215.04-17.22 210.62-17.22L210.62-17.22L210.62-17.22Q208.70-17.22 207.94-17.98ZM267.33 1.28L267.33 1.28L267.33 1.28Q259.58 1.28 259.58-4.74L259.58-4.74L259.58-4.74Q259.58-7.36 260.70-12.45L260.70-12.45L260.70-12.45Q261.82-17.54 262.21-19.58L262.21-19.58L262.21-19.58Q263.10-24.26 263.10-25.73L263.10-25.73L263.10-25.73Q263.10-28.99 260.67-28.99L260.67-28.99L260.67-28.99Q259.07-28.99 257.54-26.78L257.54-26.78L257.54-26.78Q256-24.58 255.30-20.16L255.30-20.16L251.33 0L238.85 1.28L242.30-16.13L242.30-16.13Q242.88-19.01 243.39-22.27L243.39-22.27L243.39-22.27Q243.90-25.54 243.90-26.05L243.90-26.05L243.90-26.05Q243.90-28.99 241.73-28.99L241.73-28.99L241.73-28.99Q240.26-28.99 238.66-26.82L238.66-26.82L238.66-26.82Q237.06-24.64 236.16-20.16L236.16-20.16L232.26 0L219.65 1.28L226.37-32.64L236.80-33.92L235.71-27.46L235.71-27.46Q237.38-30.91 240.45-32.42L240.45-32.42L240.45-32.42Q243.52-33.92 248.32-33.92L248.32-33.92L248.32-33.92Q251.07-33.92 252.86-32.58L252.86-32.58L252.86-32.58Q254.66-31.23 255.23-29.06L255.23-29.06L255.23-29.06Q256.32-31.30 259.10-32.61L259.10-32.61L259.10-32.61Q261.89-33.92 265.31-33.92L265.31-33.92L265.31-33.92Q268.74-33.92 270.43-33.18L270.43-33.18L270.43-33.18Q272.13-32.45 273.15-31.23L273.15-31.23L273.15-31.23Q274.88-28.99 274.88-24.90L274.88-24.90L274.88-24.90Q274.88-20.86 273.15-12.48L273.15-12.48L273.15-12.48Q272.26-8.38 272.26-6.88L272.26-6.88L272.26-6.88Q272.26-5.38 273.12-4.48L273.12-4.48L273.12-4.48Q273.98-3.58 275.26-3.46L275.26-3.46L275.26-3.46Q274.62-1.28 272.42 0L272.42 0L272.42 0Q270.21 1.28 267.33 1.28ZM295.55-3.52L295.55-3.52L295.55-3.52Q293.57 1.28 287.23 1.28L287.23 1.28L287.23 1.28Q283.97 1.28 281.92-0.96L281.92-0.96L281.92-0.96Q280.19-2.94 280.19-4.93L280.19-4.93L280.19-4.93Q280.19-10.11 282.56-20.22L282.56-20.22L284.93-32.64L297.92-33.92L294.02-13.70L294.02-13.70Q292.93-8.96 292.93-7.30L292.93-7.30L292.93-7.30Q292.93-3.65 295.55-3.52ZM286.08-41.54L286.08-41.54L286.08-41.54Q286.08-44.03 288.16-45.38L288.16-45.38L288.16-45.38Q290.24-46.72 293.25-46.72L293.25-46.72L293.25-46.72Q296.26-46.72 298.08-45.38L298.08-45.38L298.08-45.38Q299.90-44.03 299.90-41.54L299.90-41.54L299.90-41.54Q299.90-39.04 297.89-37.76L297.89-37.76L297.89-37.76Q295.87-36.48 292.86-36.48L292.86-36.48L292.86-36.48Q289.86-36.48 287.97-37.76L287.97-37.76L287.97-37.76Q286.08-39.04 286.08-41.54ZM302.02-6.40L302.02-6.40L302.02-6.40Q302.02-8.13 302.91-12.48L302.91-12.48L306.30-29.76L302.53-29.76L302.78-31.68L302.78-31.68Q310.46-33.98 317.89-39.62L317.89-39.62L320.96-39.62L319.42-32.64L324.42-32.64L323.84-29.76L318.91-29.76L315.65-12.48L315.65-12.48Q314.82-8.51 314.82-7.17L314.82-7.17L314.82-7.17Q314.82-4.10 317.50-3.46L317.50-3.46L317.50-3.46Q316.86-1.28 314.56 0L314.56 0L314.56 0Q312.26 1.28 308.99 1.28L308.99 1.28L308.99 1.28Q305.73 1.28 303.87-0.77L303.87-0.77L303.87-0.77Q302.02-2.82 302.02-6.40ZM343.23-22.46L343.23-22.46L343.23-22.46Q344.13-24.83 344.13-26.88L344.13-26.88L344.13-26.88Q344.13-30.66 341.06-30.66L341.06-30.66L341.06-30.66Q339.46-30.66 338.14-29.22L338.14-29.22L338.14-29.22Q336.83-27.78 336.83-25.98L336.83-25.98L336.83-25.98Q336.83-24.70 337.86-23.68L337.86-23.68L337.86-23.68Q339.33-22.27 343.10-19.97L343.10-19.97L343.10-19.97Q346.88-17.66 348.32-15.78L348.32-15.78L348.32-15.78Q349.76-13.89 349.76-11.30L349.76-11.30L349.76-11.30Q349.76-8.70 348.51-6.34L348.51-6.34L348.51-6.34Q347.26-3.97 345.02-2.30L345.02-2.30L345.02-2.30Q340.22 1.28 332.54 1.28L332.54 1.28L332.54 1.28Q328.38 1.28 325.18-0.90L325.18-0.90L325.18-0.90Q321.98-3.01 321.98-5.50L321.98-5.50L321.98-5.50Q321.98-8 323.81-9.47L323.81-9.47L323.81-9.47Q325.63-10.94 328.32-10.94L328.32-10.94L328.32-10.94Q331.01-10.94 332.67-9.92L332.67-9.92L332.67-9.92Q331.84-7.81 331.84-6.40L331.84-6.40L331.84-6.40Q331.84-2.18 335.42-2.18L335.42-2.18L335.42-2.18Q336.96-2.18 337.98-3.14L337.98-3.14L337.98-3.14Q339.01-4.10 339.01-5.76L339.01-5.76L339.01-5.76Q339.01-9.02 333.50-12.48L333.50-12.48L333.50-12.48Q329.02-15.42 328-16.58L328-16.58L328-16.58Q326.27-18.62 326.27-21.18L326.27-21.18L326.27-21.18Q326.27-23.74 327.49-26.18L327.49-26.18L327.49-26.18Q328.70-28.61 330.94-30.34L330.94-30.34L330.94-30.34Q335.62-33.92 343.74-33.92L343.74-33.92L343.74-33.92Q347.90-33.92 350.37-32.26L350.37-32.26L350.37-32.26Q352.83-30.59 352.83-27.78L352.83-27.78L352.83-27.78Q352.83-24.96 351.14-23.36L351.14-23.36L351.14-23.36Q349.44-21.76 346.37-21.76L346.37-21.76L346.37-21.76Q344.26-21.76 343.23-22.46Z" fill="#0b2088"></path></g></g><style>text {
  font-size: 64px;
  font-family: Arial Black;
  dominant-baseline: central;
  text-anchor: middle;
}</style></svg>