<svg width="550.08681640625px" height="122px" xmlns="http://www.w3.org/2000/svg" viewBox="-25.04340820312501 14 550.08681640625 122" style="background: rgba(0, 0, 0, 0);" preserveAspectRatio="xMidYMid"><defs><filter id="editing-metal-beveled"><feGaussianBlur stdDeviation="4" in="SourceAlpha" result="blur"></feGaussianBlur><feSpecularLighting surfaceScale="5" specularConstant="0.8" specularExponent="7.5" lighting-color="#fff" in="blur" result="specular"><fePointLight x="-250" y="-50" z="300"></fePointLight></feSpecularLighting><feComposite operator="in" in="specular" in2="SourceAlpha" result="comp"></feComposite><feComposite in="SourceGraphic" in2="comp" operator="arithmetic" k1="0" k2="1" k3="1" k4="0"></feComposite></filter></defs><g filter="url(#editing-metal-beveled)"><g transform="translate(56.229771733284, 97.46500015258789)"><path d="M26.05-29.57L26.05-29.57L26.05-29.57Q27.01-31.49 27.01-33.28L27.01-33.28L27.01-33.28Q27.01-35.07 26.82-36.06L26.82-36.06L26.82-36.06Q26.62-37.06 26.18-37.82L26.18-37.82L26.18-37.82Q25.22-39.49 23.30-39.49L23.30-39.49L23.30-39.49Q20.93-39.49 19.01-37.76L19.01-37.76L19.01-37.76Q16.96-35.97 16.96-33.15L16.96-33.15L16.96-33.15Q16.96-31.36 18.21-29.98L18.21-29.98L18.21-29.98Q19.46-28.61 21.38-27.33L21.38-27.33L21.38-27.33Q23.30-26.05 25.47-24.77L25.47-24.77L25.47-24.77Q27.65-23.49 29.57-21.95L29.57-21.95L29.57-21.95Q33.98-18.43 33.98-13.70L33.98-13.70L33.98-13.70Q33.98-10.50 32.29-7.78L32.29-7.78L32.29-7.78Q30.59-5.06 27.78-3.07L27.78-3.07L27.78-3.07Q21.63 1.28 13.50 1.28L13.50 1.28L13.50 1.28Q6.91 1.28 3.52-0.86L3.52-0.86L3.52-0.86Q0.13-3.01 0.13-6.27L0.13-6.27L0.13-6.27Q0.13-12.10 4.67-13.57L4.67-13.57L4.67-13.57Q5.95-14.02 7.90-14.02L7.90-14.02L7.90-14.02Q9.86-14.02 12.10-13.18L12.10-13.18L12.10-13.18Q11.07-10.56 11.07-8.19L11.07-8.19L11.07-8.19Q11.07-3.07 14.72-3.07L14.72-3.07L14.72-3.07Q17.09-3.07 19.04-4.80L19.04-4.80L19.04-4.80Q20.99-6.53 20.99-8.48L20.99-8.48L20.99-8.48Q20.99-10.43 19.74-11.84L19.74-11.84L19.74-11.84Q18.50-13.25 16.64-14.37L16.64-14.37L16.64-14.37Q14.78-15.49 12.64-16.58L12.64-16.58L12.64-16.58Q10.50-17.66 8.64-19.20L8.64-19.20L8.64-19.20Q4.29-22.72 4.29-28.35L4.29-28.35L4.29-28.35Q4.29-32 6.08-34.85L6.08-34.85L6.08-34.85Q7.87-37.70 10.75-39.62L10.75-39.62L10.75-39.62Q16.51-43.52 23.58-43.52L23.58-43.52L23.58-43.52Q30.66-43.52 34.08-41.41L34.08-41.41L34.08-41.41Q37.50-39.30 37.50-35.71L37.50-35.71L37.50-35.71Q37.50-32.58 35.07-30.59L35.07-30.59L35.07-30.59Q32.96-28.93 30.40-28.93L30.40-28.93L30.40-28.93Q27.84-28.93 26.05-29.57ZM52.10 0L38.14 0L46.27-42.24L60.35-42.24L52.10 0ZM103.30-26.56L103.30-26.56L103.30-26.56Q103.30 0.70 73.73 0.70L73.73 0.70L73.73 0.70Q68.99 0.70 61.18-0.45L61.18-0.45L68.35-38.27L68.35-38.27Q68.86-40.83 69.18-42.30L69.18-42.30L69.18-42.30Q78.91-43.01 83.23-43.01L83.23-43.01L83.23-43.01Q87.55-43.01 91.52-42.11L91.52-42.11L91.52-42.11Q95.49-41.22 98.11-39.23L98.11-39.23L98.11-39.23Q103.30-35.33 103.30-26.56ZM90.11-28.93L90.11-28.93L90.11-28.93Q90.11-38.46 83.26-38.46L83.26-38.46L82.62-38.46L82.62-38.46Q82.30-38.46 81.98-38.40L81.98-38.40L75.39-4.03L75.39-4.03Q75.65-3.90 75.90-3.90L75.90-3.90L76.42-3.90L76.42-3.90Q78.78-3.90 81.25-5.38L81.25-5.38L81.25-5.38Q83.71-6.85 85.63-9.86L85.63-9.86L85.63-9.86Q90.11-16.83 90.11-28.93ZM144.77-42.69L144.77-42.69L144.77-42.69Q160.45-42.69 160.45-31.62L160.45-31.62L160.45-31.62Q160.45-25.54 156.54-21.89L156.54-21.89L156.54-21.89Q152.70-18.24 145.98-18.24L145.98-18.24L145.98-18.24Q142.85-18.24 140.42-20.03L140.42-20.03L140.42-20.03Q139.26-20.80 138.50-21.82L138.50-21.82L138.50-21.82Q143.17-21.82 145.63-24.67L145.63-24.67L145.63-24.67Q148.10-27.52 148.10-33.09L148.10-33.09L148.10-33.09Q148.10-38.66 142.59-38.66L142.59-38.66L141.06-38.66L141.06-38.66Q140.67-38.66 140.35-38.59L140.35-38.59L132.99 0L119.10 0L126.98-41.92L126.98-41.92Q133.82-42.56 137.79-42.62L137.79-42.62L137.79-42.62Q141.76-42.69 144.77-42.69ZM188.10-9.86L188.10-9.86L188.10-9.86Q189.31-8.32 189.31-5.82L189.31-5.82L189.31-5.82Q189.31-2.37 186.75-0.54L186.75-0.54L186.75-0.54Q184.19 1.28 180.16 1.28L180.16 1.28L180.16 1.28Q177.86 1.28 174.34 0.77L174.34 0.77L174.34 0.77Q167.42-0.32 165.31-0.32L165.31-0.32L165.31-0.32Q163.20-0.32 162.37-0.22L162.37-0.22L162.37-0.22Q161.54-0.13 160.19 0L160.19 0L168.06-42.24L195.65-42.24L195.65-42.24Q195.65-38.34 193.76-36.29L193.76-36.29L193.76-36.29Q191.87-34.24 188.16-34.24L188.16-34.24L188.16-34.24Q184.45-34.24 180.67-35.97L180.67-35.97L178.69-24.77L190.08-24.77L190.08-24.77Q190.08-21.38 188.42-19.49L188.42-19.49L188.42-19.49Q186.75-17.60 183.97-17.60L183.97-17.60L183.97-17.60Q181.18-17.60 179.46-18.24L179.46-18.24L179.46-18.24Q177.73-18.88 177.54-19.07L177.54-19.07L175.23-6.98L175.23-6.98Q176.77-6.78 179.65-6.78L179.65-6.78L179.65-6.78Q184.58-6.78 188.10-9.86ZM208.32 0L194.62 0L202.43-42.05L202.43-42.05Q208.77-42.75 218.02-42.75L218.02-42.75L218.02-42.75Q227.26-42.75 231.55-40.06L231.55-40.06L231.55-40.06Q235.84-37.38 235.84-31.97L235.84-31.97L235.84-31.97Q235.84-26.56 233.06-23.17L233.06-23.17L233.06-23.17Q230.27-19.78 225.47-18.69L225.47-18.69L225.47-18.69Q226.56-13.38 229.06-9.09L229.06-9.09L229.06-9.09Q231.36-5.06 234.05-3.78L234.05-3.78L234.05-3.78Q233.09-1.09 231.14 0.10L231.14 0.10L231.14 0.10Q229.18 1.28 226.40 1.28L226.40 1.28L226.40 1.28Q223.62 1.28 221.44-0.35L221.44-0.35L221.44-0.35Q219.26-1.98 217.54-4.99L217.54-4.99L217.54-4.99Q213.89-11.52 213.50-21.82L213.50-21.82L213.95-21.82L213.95-21.82Q218.69-21.95 221.06-24.42L221.06-24.42L221.06-24.42Q223.42-26.88 223.42-32.06L223.42-32.06L223.42-32.06Q223.42-38.53 217.98-38.78L217.98-38.78L216.58-38.78L216.58-38.78Q216.00-38.78 215.68-38.72L215.68-38.72L208.32 0ZM244.22 0L236.86 0L248.45-42.24L261.82-42.24L264.77-18.11L276.67-42.24L287.87-42.24L289.02-10.62L289.02-10.62Q289.28-4.35 292.35-2.43L292.35-2.43L292.35-2.43Q291.65-1.15 289.60 0.06L289.60 0.06L289.60 0.06Q287.55 1.28 284.83 1.28L284.83 1.28L284.83 1.28Q282.11 1.28 280.51 0.51L280.51 0.51L280.51 0.51Q278.91-0.26 278.02-1.54L278.02-1.54L278.02-1.54Q276.42-3.84 276.42-8.26L276.42-8.26L276.42-28.03L263.81 0L255.87 0L251.39-28.74L244.22 0ZM308.35 0L294.40 0L302.53-42.24L316.61-42.24L308.35 0ZM323.14-31.17L323.14-31.17L323.14-31.17Q320.96-32.83 320.96-36.38L320.96-36.38L320.96-36.38Q320.96-39.94 323.30-41.79L323.30-41.79L323.30-41.79Q325.63-43.65 329.66-43.65L329.66-43.65L329.66-43.65Q332.22-43.65 338.30-42.75L338.30-42.75L342.66-42.11L342.66-42.11Q344.83-41.86 347.10-41.86L347.10-41.86L347.10-41.86Q349.38-41.86 350.91-42.82L350.91-42.82L350.91-42.82Q353.22-40.77 353.22-37.82L353.22-37.82L353.22-37.82Q353.22-34.88 350.59-32.77L350.59-32.77L350.59-32.77Q347.90-30.53 344.45-30.53L344.45-30.53L344.45-30.53Q342.78-30.53 340.10-30.98L340.10-30.98L340.10-30.98Q336.96-21.12 336.96-14.27L336.96-14.27L336.96-14.27Q336.96-7.42 340.42-3.84L340.42-3.84L340.42-3.84Q338.82-0.96 336.45 0.16L336.45 0.16L336.45 0.16Q334.08 1.28 330.53 1.28L330.53 1.28L330.53 1.28Q326.98 1.28 324.77-0.67L324.77-0.67L324.77-0.67Q322.56-2.62 322.56-6.66L322.56-6.66L322.56-6.66Q322.56-11.33 325.12-19.01L325.12-19.01L325.12-19.01Q327.68-26.62 331.52-32.45L331.52-32.45L331.52-32.45Q329.66-32.64 327.74-32.64L327.74-32.64L327.74-32.64Q323.78-32.64 323.14-31.17ZM376.13-29.57L376.13-29.57L376.13-29.57Q377.09-31.49 377.09-33.28L377.09-33.28L377.09-33.28Q377.09-35.07 376.90-36.06L376.90-36.06L376.90-36.06Q376.70-37.06 376.26-37.82L376.26-37.82L376.26-37.82Q375.30-39.49 373.38-39.49L373.38-39.49L373.38-39.49Q371.01-39.49 369.09-37.76L369.09-37.76L369.09-37.76Q367.04-35.97 367.04-33.15L367.04-33.15L367.04-33.15Q367.04-31.36 368.29-29.98L368.29-29.98L368.29-29.98Q369.54-28.61 371.46-27.33L371.46-27.33L371.46-27.33Q373.38-26.05 375.55-24.77L375.55-24.77L375.55-24.77Q377.73-23.49 379.65-21.95L379.65-21.95L379.65-21.95Q384.06-18.43 384.06-13.70L384.06-13.70L384.06-13.70Q384.06-10.50 382.37-7.78L382.37-7.78L382.37-7.78Q380.67-5.06 377.86-3.07L377.86-3.07L377.86-3.07Q371.71 1.28 363.58 1.28L363.58 1.28L363.58 1.28Q356.99 1.28 353.60-0.86L353.60-0.86L353.60-0.86Q350.21-3.01 350.21-6.27L350.21-6.27L350.21-6.27Q350.21-12.10 354.75-13.57L354.75-13.57L354.75-13.57Q356.03-14.02 357.98-14.02L357.98-14.02L357.98-14.02Q359.94-14.02 362.18-13.18L362.18-13.18L362.18-13.18Q361.15-10.56 361.15-8.19L361.15-8.19L361.15-8.19Q361.15-3.07 364.80-3.07L364.80-3.07L364.80-3.07Q367.17-3.07 369.12-4.80L369.12-4.80L369.12-4.80Q371.07-6.53 371.07-8.48L371.07-8.48L371.07-8.48Q371.07-10.43 369.82-11.84L369.82-11.84L369.82-11.84Q368.58-13.25 366.72-14.37L366.72-14.37L366.72-14.37Q364.86-15.49 362.72-16.58L362.72-16.58L362.72-16.58Q360.58-17.66 358.72-19.20L358.72-19.20L358.72-19.20Q354.37-22.72 354.37-28.35L354.37-28.35L354.37-28.35Q354.37-32 356.16-34.85L356.16-34.85L356.16-34.85Q357.95-37.70 360.83-39.62L360.83-39.62L360.83-39.62Q366.59-43.52 373.66-43.52L373.66-43.52L373.66-43.52Q380.74-43.52 384.16-41.41L384.16-41.41L384.16-41.41Q387.58-39.30 387.58-35.71L387.58-35.71L387.58-35.71Q387.58-32.58 385.15-30.59L385.15-30.59L385.15-30.59Q383.04-28.93 380.48-28.93L380.48-28.93L380.48-28.93Q377.92-28.93 376.13-29.57Z" fill="#444"></path></g></g><style>text {
  font-size: 64px;
  font-family: Arial Black;
  dominant-baseline: central;
  text-anchor: middle;
}</style></svg>