<?xml version="1.0"?>
<svg xmlns:rdf="http://www.w3.org/1999/02/22-rdf-syntax-ns#" xmlns="http://www.w3.org/2000/svg" xmlns:cc="http://web.resource.org/cc/" xmlns:dc="http://purl.org/dc/elements/1.1/" xmlns:svg="http://www.w3.org/2000/svg" id="svg14350" viewBox="0 0 137.63 49.614" version="1.0">
  <g id="layer1" transform="translate(-2459.5 1588.5)">
    <path id="rect5566" d="m-1580.4-2595.8h33.5c3.7 0 6.6 3 6.6 6.7v121.5c0 3.7-2.9 6.7-6.6 6.7h-33.5c-3.7 0-6.7-3-6.7-6.7v-121.5c0-3.7 3-6.7 6.7-6.7z" transform="rotate(90)" stroke="#000" stroke-width="2.7922" fill="#ff0"/>
    <path id="text5568" d="m3190.1-1210.4c0-2.3 0.3-4.1 1-5.6 0.5-1.2 1.2-2.2 2-3 0.9-0.9 1.8-1.6 2.8-2 1.4-0.6 3-0.9 4.7-0.9 3.3 0 5.8 1 7.8 3 1.9 2 2.9 4.8 2.9 8.3 0 3.6-1 6.3-2.9 8.3s-4.5 3-7.7 3-5.8-1-7.7-3c-2-1.9-2.9-4.7-2.9-8.1zm4.5-0.2c0 2.5 0.6 4.4 1.7 5.6 1.2 1.3 2.6 1.9 4.4 1.9 1.7 0 3.2-0.6 4.3-1.9 1.1-1.2 1.7-3.1 1.7-5.7 0-2.5-0.5-4.3-1.6-5.6-1.1-1.2-2.6-1.8-4.4-1.8s-3.3 0.6-4.4 1.9c-1.1 1.2-1.7 3.1-1.7 5.6zm25.7 10.9l-7.8-21.8h4.7l5.6 16.2 5.3-16.2h4.7l-7.8 21.8h-4.7zm14.8 0v-21.8h16.2v3.7h-11.8v4.8h10.9v3.7h-10.9v6h12.2v3.6h-16.6zm20.4 0v-21.8h9.2c2.4 0 4.1 0.2 5.1 0.6 1.1 0.4 1.9 1.1 2.6 2.1 0.6 1 0.9 2.1 0.9 3.4 0 1.7-0.5 3-1.4 4.1-1 1.1-2.4 1.7-4.3 2 0.9 0.6 1.7 1.2 2.3 1.8 0.6 0.7 1.5 1.9 2.5 3.6l2.7 4.2h-5.3l-3.2-4.7c-1.1-1.7-1.9-2.8-2.3-3.2-0.4-0.5-0.9-0.8-1.3-0.9-0.5-0.2-1.2-0.3-2.2-0.3h-0.9v9.1h-4.4zm4.4-12.6h3.2c2.1 0 3.5-0.1 4-0.2 0.5-0.2 0.9-0.5 1.2-1 0.3-0.4 0.5-0.9 0.5-1.6s-0.2-1.3-0.6-1.8c-0.4-0.4-1-0.7-1.7-0.8-0.3-0.1-1.4-0.1-3.2-0.1h-3.4v5.5zm16.5 5.5l4.3-0.4c0.2 1.5 0.7 2.5 1.5 3.2s1.9 1 3.2 1c1.4 0 2.5-0.3 3.2-0.9 0.8-0.6 1.1-1.3 1.1-2.1 0-0.5-0.1-1-0.4-1.3-0.3-0.4-0.9-0.7-1.6-1-0.5-0.1-1.7-0.5-3.6-0.9-2.3-0.6-4-1.3-4.9-2.2-1.4-1.2-2-2.7-2-4.4 0-1.1 0.3-2.1 0.9-3.1s1.5-1.7 2.7-2.2 2.7-0.8 4.3-0.8c2.8 0 4.8 0.6 6.2 1.8s2.1 2.8 2.2 4.8l-4.4 0.2c-0.2-1.1-0.6-1.9-1.2-2.4s-1.6-0.7-2.8-0.7c-1.3 0-2.3 0.2-3 0.8-0.5 0.3-0.7 0.8-0.7 1.3s0.2 1 0.6 1.3c0.6 0.5 1.9 1 4.1 1.5 2.1 0.5 3.7 1 4.7 1.6 1.1 0.5 1.9 1.3 2.5 2.2 0.5 0.9 0.8 2.1 0.8 3.5 0 1.2-0.3 2.4-1 3.5s-1.7 1.9-3 2.4c-1.2 0.6-2.8 0.8-4.7 0.8-2.8 0-4.9-0.6-6.4-1.9s-2.3-3.1-2.6-5.6zm21.3 7.1v-21.8h4.4v21.8h-4.4zm6.7 0v-3.9l11.5-14.2h-10.2v-3.7h16v3.4l-11.9 14.8h12.4v3.6h-17.8zm20.6 0v-21.8h16.2v3.7h-11.8v4.8h10.9v3.7h-10.9v6h12.2v3.6h-16.6z" transform="scale(.77418 1.2917)"/>
  </g>
  <metadata>
    <rdf:RDF>
      <cc:Work>
        <dc:format>image/svg+xml</dc:format>
        <dc:type rdf:resource="http://purl.org/dc/dcmitype/StillImage"/>
        <cc:license rdf:resource="http://creativecommons.org/licenses/publicdomain/"/>
        <dc:publisher>
          <cc:Agent rdf:about="http://openclipart.org/">
            <dc:title>Openclipart</dc:title>
          </cc:Agent>
        </dc:publisher>
        <dc:title>caution_overload</dc:title>
        <dc:date>2007-10-20T00:25:30</dc:date>
        <dc:description>clip art, clipart, image, media, public domain, roadsign, roadsign, sign, sign, svg, </dc:description>
        <dc:source>http://openclipart.org/detail/7261/caution_overload-by-leomarc</dc:source>
        <dc:creator>
          <cc:Agent>
            <dc:title>Leomarc</dc:title>
          </cc:Agent>
        </dc:creator>
        <dc:subject>
          <rdf:Bag>
            <rdf:li>clip art</rdf:li>
            <rdf:li>clipart</rdf:li>
            <rdf:li>image</rdf:li>
            <rdf:li>media</rdf:li>
            <rdf:li>public domain</rdf:li>
            <rdf:li>roadsign</rdf:li>
            <rdf:li>sign</rdf:li>
            <rdf:li>svg</rdf:li>
          </rdf:Bag>
        </dc:subject>
      </cc:Work>
      <cc:License rdf:about="http://creativecommons.org/licenses/publicdomain/">
        <cc:permits rdf:resource="http://creativecommons.org/ns#Reproduction"/>
        <cc:permits rdf:resource="http://creativecommons.org/ns#Distribution"/>
        <cc:permits rdf:resource="http://creativecommons.org/ns#DerivativeWorks"/>
      </cc:License>
    </rdf:RDF>
  </metadata>
</svg>
