<svg xmlns="http://www.w3.org/2000/svg" version="1.1" xmlns:xlink="http://www.w3.org/1999/xlink" xmlns:svgjs="http://svgjs.dev/svgjs" width="2000" height="1247" viewBox="0 0 2000 1247"><g transform="matrix(1,0,0,1,-1.2121212121212466,0.504858299595071)"><svg viewBox="0 0 396 247" data-background-color="#ffffff" preserveAspectRatio="xMidYMid meet" height="1247" width="2000" xmlns="http://www.w3.org/2000/svg" xmlns:xlink="http://www.w3.org/1999/xlink"><g id="tight-bounds" transform="matrix(1,0,0,1,0.2400000000000091,-0.09999999999999432)"><svg viewBox="0 0 395.52 247.2" height="247.2" width="395.52"><g><svg></svg></g><g><svg viewBox="0 0 395.52 247.2" height="247.2" width="395.52"><g><g><path d="M23.501 229.792c-14.994-11.606-22.492-29.71-22.491-54.315l0.348-6.963h31.683l-0.348 7.311c0 14.159 4.341 24.882 13.022 32.171 8.727 7.335 20.171 11.002 34.329 11.002 16.016 0 28.387-3.435 37.115-10.305 8.681-6.824 13.022-16.619 13.021-29.386 0-4.017-0.518-7.694-1.554-11.031l33.391 0c0.13 1.885 0.195 3.821 0.195 5.809 0 25.532-7.242 44.101-21.726 55.707-14.53 11.606-34.213 17.408-59.049 17.408-23.675 0-42.987-5.803-57.936-17.408zM5.884 64.063c0-20.89 7.079-36.79 21.238-47.699 14.159-10.909 32.38-16.364 54.663-16.364 22.283 0 40.341 5.524 54.175 16.573 13.787 11.002 20.681 27.877 20.681 50.624v4.178h-31.683v-5.223c0-11.838-3.992-21.122-11.977-27.853-8.031-6.731-18.198-10.097-30.5-10.097-13.23 0-23.908 2.832-32.031 8.495-8.124 5.71-12.186 14.02-12.186 24.929 0 6.786 1.62 12.552 4.859 17.298l-35.924 0c-0.877-4.574-1.315-9.527-1.315-14.861zM237.834 243.022v-74.746h30.639v74.746zM237.834 4.178h85.302c22.979 0 40.62 6.267 52.921 18.801 12.302 12.534 18.453 29.478 18.453 50.833 0 1.732-0.042 3.436-0.127 5.112l-32.107 0c0.135-1.656 0.202-3.36 0.203-5.112 0-12.998-3.482-23.211-10.445-30.639-6.963-7.428-16.944-11.141-29.943-11.141h-53.618v46.892h-30.639z" fill="#232c88" fill-rule="nonzero" stroke="none" stroke-width="1" stroke-linecap="butt" stroke-linejoin="miter" stroke-miterlimit="10" stroke-dasharray="" stroke-dashoffset="0" font-family="none" font-weight="none" font-size="none" text-anchor="none" style="mix-blend-mode: normal" data-fill-palette-color="tertiary"></path></g></g><g transform="matrix(1,0,0,1,0,89.01670235546038)"><svg viewBox="0 0 395.52 69.16659528907921" height="69.16659528907921" width="395.52"><g><svg viewBox="0 0 395.52 69.16659528907921" height="69.16659528907921" width="395.52"><g><svg viewBox="0 0 395.52 69.16659528907921" height="69.16659528907921" width="395.52"><g><svg viewBox="0 0 395.52 69.16659528907921" height="69.16659528907921" width="395.52"><g><svg viewBox="0 0 395.52 69.16659528907921" height="69.16659528907921" width="395.52"><g><svg viewBox="0 0 395.52 69.16659528907921" height="69.16659528907921" width="395.52"><g transform="matrix(1,0,0,1,0,0)"><svg width="395.52" viewBox="2.05 -36.15 210.13 36.75" height="69.16659528907921" data-palette-color="#18216d"><path d="M13.6 0.6Q8.5 0.6 5.28-1.9 2.05-4.4 2.05-9.7L2.05-9.7 2.1-10.7 6.65-10.7 6.6-9.65Q6.6-6.6 8.47-5.03 10.35-3.45 13.4-3.45L13.4-3.45Q16.85-3.45 18.73-4.93 20.6-6.4 20.6-9.15L20.6-9.15Q20.6-11 19.58-12.18 18.55-13.35 17.03-14.05 15.5-14.75 12.85-15.6L12.85-15.6Q9.6-16.7 7.6-17.7 5.6-18.7 4.17-20.63 2.75-22.55 2.75-25.7L2.75-25.7Q2.75-30.2 5.8-32.55 8.85-34.9 13.65-34.9L13.65-34.9Q18.45-34.9 21.43-32.52 24.4-30.15 24.4-25.25L24.4-25.25 24.4-24.65 19.85-24.65 19.85-25.4Q19.85-27.95 18.13-29.4 16.4-30.85 13.75-30.85L13.75-30.85Q10.9-30.85 9.15-29.63 7.4-28.4 7.4-26.05L7.4-26.05Q7.4-24.3 8.4-23.18 9.4-22.05 10.9-21.38 12.4-20.7 15-19.85L15-19.85Q18.3-18.75 20.33-17.78 22.35-16.8 23.78-14.88 25.2-12.95 25.2-9.9L25.2-9.9Q25.2-4.4 22.08-1.9 18.95 0.6 13.6 0.6L13.6 0.6ZM31 0L31-26.3 35.1-26.3 35.1 0 31 0ZM30.9-31.4L30.9-36.15 35.15-36.15 35.15-31.4 30.9-31.4ZM48.9 0.6Q45 0.6 42.87-2.8 40.75-6.2 40.75-13.2L40.75-13.2Q40.75-20 42.92-23.45 45.1-26.9 48.6-26.9L48.6-26.9Q50.55-26.9 52.05-26.08 53.55-25.25 54.2-23.8L54.2-23.8 54.45-23.8 54.45-36.15 58.55-36.15 58.55 0 55.45 0 54.9-3.05 54.65-3.05Q53.7-1.25 52.2-0.33 50.7 0.6 48.9 0.6L48.9 0.6ZM49.75-3.05Q54.45-3.05 54.45-12.2L54.45-12.2 54.45-13.9Q54.45-23.25 49.75-23.25L49.75-23.25Q47.35-23.25 46.2-21.1 45.05-18.95 45.05-14.1L45.05-14.1 45.05-12.2Q45.05-7.35 46.2-5.2 47.35-3.05 49.75-3.05L49.75-3.05ZM76.44 0L76.44-34.3 88.69-34.3Q93.64-34.3 96.29-31.6 98.94-28.9 98.94-24.3L98.94-24.3Q98.94-19.7 96.17-16.93 93.39-14.15 88.69-14.15L88.69-14.15 80.84-14.15 80.84 0 76.44 0ZM80.84-18.15L88.54-18.15Q91.14-18.15 92.74-19.83 94.34-21.5 94.34-24.3L94.34-24.3Q94.34-27.1 92.84-28.7 91.34-30.3 88.54-30.3L88.54-30.3 80.84-30.3 80.84-18.15ZM112.34 0.6Q107.34 0.6 104.86-2.68 102.39-5.95 102.39-13.15L102.39-13.15Q102.39-20.2 104.84-23.55 107.29-26.9 112.29-26.9L112.29-26.9Q116.69-26.9 118.81-23.98 120.94-21.05 120.94-14.55L120.94-14.55 120.94-11.95 106.69-11.95Q106.74-7.35 108.11-5.2 109.49-3.05 112.44-3.05L112.44-3.05Q114.44-3.05 115.66-4.65 116.89-6.25 116.89-8.95L116.89-8.95 120.94-8.95Q120.94-4.55 118.56-1.98 116.19 0.6 112.34 0.6L112.34 0.6ZM106.74-15.6L116.64-15.6Q116.64-19.35 115.54-21.3 114.44-23.25 112.29-23.25L112.29-23.25Q109.64-23.25 108.31-21.38 106.99-19.5 106.74-15.6L106.74-15.6ZM126.09 0L126.09-26.3 129.19-26.3 129.74-22.85 130.04-22.85Q130.59-24.6 131.69-25.75 132.79-26.9 134.49-26.9L134.49-26.9Q135.54-26.9 136.44-26.5L136.44-26.5 136.44-22.25 135.09-22.25Q132.94-22.25 131.56-20.78 130.19-19.3 130.19-16.05L130.19-16.05 130.19 0 126.09 0ZM139.73 0L139.73-26.3 142.83-26.3 143.38-23.25 143.68-23.25Q145.63-26.9 149.68-26.9L149.68-26.9Q153.93-26.9 155.28-23.1L155.28-23.1Q156.28-24.95 158.01-25.93 159.73-26.9 161.68-26.9L161.68-26.9Q167.88-26.9 167.88-18.95L167.88-18.95 167.88 0 163.78 0 163.78-18.65Q163.78-21.2 162.88-22.23 161.98-23.25 160.38-23.25L160.38-23.25Q158.48-23.25 157.18-21.3 155.88-19.35 155.88-16.05L155.88-16.05 155.88 0 151.78 0 151.78-18.65Q151.78-21.2 150.88-22.23 149.98-23.25 148.38-23.25L148.38-23.25Q146.48-23.25 145.16-21.3 143.83-19.35 143.83-16.05L143.83-16.05 143.83 0 139.73 0ZM174.53 0L174.53-26.3 178.63-26.3 178.63 0 174.53 0ZM174.43-31.4L174.43-36.15 178.68-36.15 178.68-31.4 174.43-31.4ZM189.93 0.5Q187.43 0.5 186.33-1.23 185.23-2.95 185.23-5.55L185.23-5.55 185.23-22.65 182.98-22.65 182.98-26.3 185.23-26.3 186.13-33.6 189.33-33.6 189.33-26.3 192.88-26.3 192.88-22.65 189.33-22.65 189.33-5.45Q189.33-3.05 191.68-3.05L191.68-3.05 192.88-3.05 192.88-0.2Q192.33 0.1 191.5 0.3 190.68 0.5 189.93 0.5L189.93 0.5ZM203.78 0.6Q199.53 0.6 197.43-1.63 195.33-3.85 195.33-7.1L195.33-7.1Q195.33-7.7 195.35-7.93 195.38-8.15 195.38-8.2L195.38-8.2 199.68-8.2 199.68-7.7Q199.68-5.35 200.88-4.17 202.08-3 203.98-3L203.98-3Q205.68-3 206.8-4.03 207.93-5.05 207.93-6.9L207.93-6.9Q207.93-8.3 207.23-9.2 206.53-10.1 205.53-10.63 204.53-11.15 202.73-11.8L202.73-11.8Q200.53-12.55 199.18-13.3 197.83-14.05 196.88-15.53 195.93-17 195.93-19.4L195.93-19.4Q195.93-22.85 198.15-24.88 200.38-26.9 204.13-26.9L204.13-26.9Q207.68-26.9 209.68-24.83 211.68-22.75 211.68-19.7L211.68-19.7 211.63-18.75 207.38-18.75 207.38-19.2Q207.38-20.95 206.53-22.13 205.68-23.3 203.73-23.3L203.73-23.3Q201.78-23.3 200.98-22.2 200.18-21.1 200.18-19.7L200.18-19.7Q200.18-18 201.35-17.18 202.53-16.35 204.98-15.55L204.98-15.55Q207.23-14.75 208.68-13.98 210.13-13.2 211.15-11.65 212.18-10.1 212.18-7.5L212.18-7.5Q212.18-3.45 209.9-1.43 207.63 0.6 203.78 0.6L203.78 0.6Z" opacity="1" transform="matrix(1,0,0,1,0,0)" fill="#18216d" class="undefined-text-0" data-fill-palette-color="primary" id="text-0"></path></svg></g></svg></g></svg></g></svg></g></svg></g></svg></g></svg></g></svg></g><defs></defs></svg><rect width="395.52" height="247.2" fill="none" stroke="none" visibility="hidden"></rect></g></svg></g></svg>